<?xml version="1.0" standalone="no"?>
<!DOCTYPE svg PUBLIC "-//W3C//DTD SVG 20010904//EN"
 "http://www.w3.org/TR/2001/REC-SVG-20010904/DTD/svg10.dtd">
<svg version="1.0" xmlns="http://www.w3.org/2000/svg"
 width="512.000000pt" height="512.000000pt" viewBox="0 0 512.000000 512.000000"
 preserveAspectRatio="xMidYMid meet">
<metadata>
Created by potrace 1.11, written by Peter Selinger 2001-2013
</metadata>
<g transform="translate(0.000000,512.000000) scale(0.100000,-0.100000)"
fill="#000000" stroke="none">
<path d="M2565 3750 c-20 -32 -43 -133 -49 -212 -5 -56 -11 -68 -36 -68 -10 0
-27 -11 -38 -24 l-19 -25 -630 0 c-346 0 -640 -2 -654 -5 -13 -3 -40 -8 -59
-11 -60 -7 -92 -15 -168 -41 -367 -123 -632 -442 -690 -834 -12 -80 -6 -261
11 -340 27 -126 87 -268 158 -372 200 -294 523 -461 874 -452 126 3 227 23
343 67 287 107 533 371 617 660 l16 57 319 0 319 0 16 -57 c91 -312 357 -580
677 -683 156 -49 429 -60 534 -20 13 5 24 7 24 5 0 -12 203 71 265 108 149 90
294 234 365 362 12 22 25 45 30 50 15 20 69 162 84 220 29 111 39 282 24 385
-5 30 -10 69 -13 85 -7 51 -45 156 -85 240 -149 311 -471 535 -820 570 -30 3
-334 5 -674 6 l-619 0 -27 29 c-20 22 -33 27 -50 23 -23 -6 -23 -5 -17 63 7
88 14 119 37 172 10 23 16 43 12 43 -32 5 -73 5 -77 -1z"/>
</g>
</svg>
